ffmpeg started on 2025-05-25 at 19:02:47
Report written to "D:\Convert\FFMetrics\reports\psnr_report-6.txt"
Log level: 32
Command line:
ffmpeg -hide_banner -nostdin -i "G:\\\xc0\xed\xe8\xec\xe5\\\xce\xed\xe3\xee\xe8\xed\xe3\xe8\\!_34_\xc2\xe5\xf1\xed\xe0_2024\\JamClub\\\xc1\xee\xf0\xfc\xe1\xe0 \xe2 \xef\xf0\xff\xec\xee\xec \xfd\xf4\xe8\xf0\xe5\\[JAM_CLUB]_Kenka_Dokugaku_08_[1080p][RUS][DUB]_HEVC.mkv" -i "G:\\\xc0\xed\xe8\xec\xe5\\\xce\xed\xe3\xee\xe8\xed\xe3\xe8\\!_34_\xc2\xe5\xf1\xed\xe0_2024\\JamClub\\\xc1\xee\xf0\xfc\xe1\xe0 \xe2 \xef\xf0\xff\xec\xee\xec \xfd\xf4\xe8\xf0\xe5\\[JAM_CLUB]_Kenka_Dokugaku_08_[1080p][RUS][DUB].mp4" -lavfi "[0:v]settb=AVTB,setpts=PTS-STARTPTS,format=pix_fmts=yuv420p10,fps=24000/1001,scale=1920:1080:flags=bicubic[main];[1:v]settb=AVTB,setpts=PTS-STARTPTS,format=pix_fmts=yuv420p,fps=24000/1001,scale=1920:1080:flags=bicubic[ref];[main][ref]psnr=eof_action=endall:stats_file='D\\:/Convert/FFMetrics/logs/psnr_logfile-6.txt'" -f null -
Input #0, matroska,webm, from 'G:\Аниме\Онгоинги\!_34_Весна_2024\JamClub\Борьба в прямом эфире\[JAM_CLUB]_Kenka_Dokugaku_08_[1080p][RUS][DUB]_HEVC.mkv':
  Metadata:
    COMPATIBLE_BRANDS: isomiso2avc1mp41
    MAJOR_BRAND     : isom
    MINOR_VERSION   : 512
    ENCODER         : Lavf61.7.100
  Duration: 00:23:17.40, start: -0.001000, bitrate: 1792 kb/s
  Stream #0:0: Video: hevc (Main 10), yuv420p10le(tv, bt709, progressive), 1920x1080 [SAR 1:1 DAR 16:9], 23.98 fps, 23.98 tbr, 1k tbn (default)
      Metadata:
        HANDLER_NAME    : VideoHandler
        VENDOR_ID       : [0][0][0][0]
        ENCODER         : Lavc61.19.100 libx265
        BPS             : 1593502
        DURATION        : 00:23:17.270708333
        NUMBER_OF_FRAMES: 33501
        NUMBER_OF_BYTES : 278319175
        _STATISTICS_WRITING_APP: mkvpropedit v66.0.0 ('Josie') 64-bit
        _STATISTICS_WRITING_DATE_UTC: 2025-05-25 14:19:48
        _STATISTICS_TAGS: BPS DURATION NUMBER_OF_FRAMES NUMBER_OF_BYTES
  Stream #0:1(eng): Audio: aac (LC), 48000 Hz, stereo, fltp (default)
      Metadata:
        HANDLER_NAME    : SoundHandler
        VENDOR_ID       : [0][0][0][0]
        ENCODER         : Lavc61.19.100 aac
        BPS             : 195323
        DURATION        : 00:23:17.357000000
        NUMBER_OF_FRAMES: 65502
        NUMBER_OF_BYTES : 34117135
        _STATISTICS_WRITING_APP: mkvpropedit v66.0.0 ('Josie') 64-bit
        _STATISTICS_WRITING_DATE_UTC: 2025-05-25 14:19:48
        _STATISTICS_TAGS: BPS DURATION NUMBER_OF_FRAMES NUMBER_OF_BYTES
Input #1, mov,mp4,m4a,3gp,3g2,mj2, from 'G:\Аниме\Онгоинги\!_34_Весна_2024\JamClub\Борьба в прямом эфире\[JAM_CLUB]_Kenka_Dokugaku_08_[1080p][RUS][DUB].mp4':
  Metadata:
    major_brand     : isom
    minor_version   : 512
    compatible_brands: isomiso2avc1mp41
    encoder         : Lavf60.16.100
  Duration: 00:23:17.38, start: 0.000000, bitrate: 5040 kb/s
  Stream #1:0[0x1](und): Video: h264 (High) (avc1 / 0x31637661), yuv420p(progressive), 1920x1080, 4842 kb/s, 23.98 fps, 23.98 tbr, 90k tbn (default)
      Metadata:
        handler_name    : VideoHandler
        vendor_id       : [0][0][0][0]
  Stream #1:1[0x2](eng): Audio: aac (LC) (mp4a / 0x6134706D), 48000 Hz, stereo, fltp, 191 kb/s (default)
      Metadata:
        handler_name    : SoundHandler
        vendor_id       : [0][0][0][0]
Stream mapping:
  Stream #0:0 (hevc) -> settb:default
  Stream #1:0 (h264) -> settb:default
  psnr:default -> Stream #0:0 (wrapped_avframe)
  Stream #0:1 -> #0:1 (aac (native) -> pcm_s16le (native))
Output #0, null, to 'pipe:':
  Metadata:
    COMPATIBLE_BRANDS: isomiso2avc1mp41
    MAJOR_BRAND     : isom
    MINOR_VERSION   : 512
    encoder         : Lavf61.7.100
  Stream #0:0: Video: wrapped_avframe, yuv420p10le(tv, bt709, progressive), 1920x1080 [SAR 1:1 DAR 16:9], q=2-31, 200 kb/s, 23.98 fps, 23.98 tbn
      Metadata:
        encoder         : Lavc61.19.100 wrapped_avframe
  Stream #0:1(eng): Audio: pcm_s16le, 48000 Hz, stereo, s16, 1536 kb/s (default)
      Metadata:
        HANDLER_NAME    : SoundHandler
        VENDOR_ID       : [0][0][0][0]
        _STATISTICS_TAGS: BPS DURATION NUMBER_OF_FRAMES NUMBER_OF_BYTES
        BPS             : 195323
        DURATION        : 00:23:17.357000000
        NUMBER_OF_FRAMES: 65502
        NUMBER_OF_BYTES : 34117135
        _STATISTICS_WRITING_APP: mkvpropedit v66.0.0 ('Josie') 64-bit
        _STATISTICS_WRITING_DATE_UTC: 2025-05-25 14:19:48
        encoder         : Lavc61.19.100 pcm_s16le
frame=  113 fps=0.0 q=-0.0 size=N/A time=00:00:04.71 bitrate=N/A speed=9.05x    frame=  274 fps=266 q=-0.0 size=N/A time=00:00:11.42 bitrate=N/A speed=11.1x    frame=  482 fps=310 q=-0.0 size=N/A time=00:00:20.10 bitrate=N/A speed=12.9x    frame=  718 fps=348 q=-0.0 size=N/A time=00:00:29.94 bitrate=N/A speed=14.5x    frame=  942 fps=366 q=-0.0 size=N/A time=00:00:39.28 bitrate=N/A speed=15.2x    frame= 1146 fps=369 q=-0.0 size=N/A time=00:00:47.79 bitrate=N/A speed=15.4x    frame= 1334 fps=369 q=-0.0 size=N/A time=00:00:55.63 bitrate=N/A speed=15.4x    frame= 1530 fps=370 q=-0.0 size=N/A time=00:01:03.81 bitrate=N/A speed=15.4x    frame= 1736 fps=374 q=-0.0 size=N/A time=00:01:12.40 bitrate=N/A speed=15.6x    frame= 1976 fps=383 q=-0.0 size=N/A time=00:01:22.41 bitrate=N/A speed=  16x    frame= 2167 fps=382 q=-0.0 size=N/A time=00:01:30.38 bitrate=N/A speed=15.9x    frame= 2388 fps=385 q=-0.0 size=N/A time=00:01:39.59 bitrate=N/A speed=16.1x    frame= 2600 fps=388 q=-0.0 size=N/A time=00:01:48.44 bitrate=N/A speed=16.2x    frame= 2853 fps=395 q=-0.0 size=N/A time=00:01:58.99 bitrate=N/A speed=16.5x    frame= 3057 fps=395 q=-0.0 size=N/A time=00:02:07.50 bitrate=N/A speed=16.5x    frame= 3216 fps=389 q=-0.0 size=N/A time=00:02:14.13 bitrate=N/A speed=16.2x    frame= 3373 fps=385 q=-0.0 size=N/A time=00:02:20.68 bitrate=N/A speed=  16x    frame= 3559 fps=384 q=-0.0 size=N/A time=00:02:28.43 bitrate=N/A speed=  16x    frame= 3778 fps=385 q=-0.0 size=N/A time=00:02:37.57 bitrate=N/A speed=16.1x    frame= 3962 fps=384 q=-0.0 size=N/A time=00:02:45.24 bitrate=N/A speed=  16x    frame= 4117 fps=380 q=-0.0 size=N/A time=00:02:51.71 bitrate=N/A speed=15.8x    frame= 4335 fps=382 q=-0.0 size=N/A time=00:03:00.80 bitrate=N/A speed=15.9x    frame= 4535 fps=382 q=-0.0 size=N/A time=00:03:09.14 bitrate=N/A speed=15.9x    frame= 4720 fps=381 q=-0.0 size=N/A time=00:03:16.86 bitrate=N/A speed=15.9x    frame= 4859 fps=376 q=-0.0 size=N/A time=00:03:22.66 bitrate=N/A speed=15.7x    frame= 5040 fps=376 q=-0.0 size=N/A time=00:03:30.21 bitrate=N/A speed=15.7x    frame= 5217 fps=374 q=-0.0 size=N/A time=00:03:37.59 bitrate=N/A speed=15.6x    frame= 5363 fps=371 q=-0.0 size=N/A time=00:03:43.68 bitrate=N/A speed=15.5x    frame= 5543 fps=370 q=-0.0 size=N/A time=00:03:51.18 bitrate=N/A speed=15.4x    frame= 5756 fps=372 q=-0.0 size=N/A time=00:04:00.07 bitrate=N/A speed=15.5x    frame= 5941 fps=371 q=-0.0 size=N/A time=00:04:07.78 bitrate=N/A speed=15.5x    frame= 6157 fps=373 q=-0.0 size=N/A time=00:04:16.79 bitrate=N/A speed=15.5x    frame= 6339 fps=372 q=-0.0 size=N/A time=00:04:24.38 bitrate=N/A speed=15.5x    frame= 6519 fps=371 q=-0.0 size=N/A time=00:04:31.89 bitrate=N/A speed=15.5x    frame= 6710 fps=371 q=-0.0 size=N/A time=00:04:39.86 bitrate=N/A speed=15.5x    frame= 6893 fps=371 q=-0.0 size=N/A time=00:04:47.49 bitrate=N/A speed=15.5x    frame= 7070 fps=370 q=-0.0 size=N/A time=00:04:54.87 bitrate=N/A speed=15.4x    frame= 7322 fps=373 q=-0.0 size=N/A time=00:05:05.38 bitrate=N/A speed=15.6x    frame= 7542 fps=374 q=-0.0 size=N/A time=00:05:14.56 bitrate=N/A speed=15.6x    frame= 7774 fps=376 q=-0.0 size=N/A time=00:05:24.24 bitrate=N/A speed=15.7x    frame= 7993 fps=378 q=-0.0 size=N/A time=00:05:33.37 bitrate=N/A speed=15.7x    frame= 8191 fps=378 q=-0.0 size=N/A time=00:05:41.63 bitrate=N/A speed=15.7x    frame= 8325 fps=375 q=-0.0 size=N/A time=00:05:47.22 bitrate=N/A speed=15.6x    frame= 8526 fps=375 q=-0.0 size=N/A time=00:05:55.60 bitrate=N/A speed=15.6x    frame= 8739 fps=376 q=-0.0 size=N/A time=00:06:04.48 bitrate=N/A speed=15.7x    frame= 8946 fps=377 q=-0.0 size=N/A time=00:06:13.12 bitrate=N/A speed=15.7x    frame= 9109 fps=375 q=-0.0 size=N/A time=00:06:19.92 bitrate=N/A speed=15.7x    frame= 9330 fps=376 q=-0.0 size=N/A time=00:06:29.13 bitrate=N/A speed=15.7x    frame= 9529 fps=377 q=-0.0 size=N/A time=00:06:37.43 bitrate=N/A speed=15.7x    frame= 9759 fps=378 q=-0.0 size=N/A time=00:06:47.03 bitrate=N/A speed=15.8x    frame=10020 fps=381 q=-0.0 size=N/A time=00:06:57.91 bitrate=N/A speed=15.9x    frame=10259 fps=382 q=-0.0 size=N/A time=00:07:07.88 bitrate=N/A speed=15.9x    frame=10468 fps=383 q=-0.0 size=N/A time=00:07:16.60 bitrate=N/A speed=  16x    frame=10695 fps=384 q=-0.0 size=N/A time=00:07:26.07 bitrate=N/A speed=  16x    frame=10938 fps=385 q=-0.0 size=N/A time=00:07:36.20 bitrate=N/A speed=16.1x    frame=11212 fps=388 q=-0.0 size=N/A time=00:07:47.63 bitrate=N/A speed=16.2x    frame=11473 fps=390 q=-0.0 size=N/A time=00:07:58.51 bitrate=N/A speed=16.3x    frame=11735 fps=392 q=-0.0 size=N/A time=00:08:09.44 bitrate=N/A speed=16.3x    frame=12000 fps=394 q=-0.0 size=N/A time=00:08:20.50 bitrate=N/A speed=16.4x    frame=12268 fps=396 q=-0.0 size=N/A time=00:08:31.67 bitrate=N/A speed=16.5x    frame=12503 fps=397 q=-0.0 size=N/A time=00:08:41.47 bitrate=N/A speed=16.6x    frame=12735 fps=398 q=-0.0 size=N/A time=00:08:51.15 bitrate=N/A speed=16.6x    frame=12988 fps=399 q=-0.0 size=N/A time=00:09:01.70 bitrate=N/A speed=16.7x    frame=13269 fps=402 q=-0.0 size=N/A time=00:09:13.42 bitrate=N/A speed=16.7x    frame=13520 fps=403 q=-0.0 size=N/A time=00:09:23.89 bitrate=N/A speed=16.8x    frame=13779 fps=404 q=-0.0 size=N/A time=00:09:34.69 bitrate=N/A speed=16.9x    frame=14033 fps=406 q=-0.0 size=N/A time=00:09:45.29 bitrate=N/A speed=16.9x    frame=14278 fps=407 q=-0.0 size=N/A time=00:09:55.51 bitrate=N/A speed=  17x    frame=14514 fps=407 q=-0.0 size=N/A time=00:10:05.35 bitrate=N/A speed=  17x    frame=14781 fps=409 q=-0.0 size=N/A time=00:10:16.49 bitrate=N/A speed=17.1x    frame=14995 fps=409 q=-0.0 size=N/A time=00:10:25.41 bitrate=N/A speed=17.1x    frame=15254 fps=410 q=-0.0 size=N/A time=00:10:36.21 bitrate=N/A speed=17.1x    frame=15487 fps=411 q=-0.0 size=N/A time=00:10:45.93 bitrate=N/A speed=17.1x    frame=15706 fps=411 q=-0.0 size=N/A time=00:10:55.07 bitrate=N/A speed=17.1x    frame=15927 fps=411 q=-0.0 size=N/A time=00:11:04.28 bitrate=N/A speed=17.2x    frame=16133 fps=411 q=-0.0 size=N/A time=00:11:12.88 bitrate=N/A speed=17.2x    frame=16375 fps=412 q=-0.0 size=N/A time=00:11:22.97 bitrate=N/A speed=17.2x    frame=16591 fps=412 q=-0.0 size=N/A time=00:11:31.98 bitrate=N/A speed=17.2x    frame=16810 fps=412 q=-0.0 size=N/A time=00:11:41.11 bitrate=N/A speed=17.2x    frame=16965 fps=411 q=-0.0 size=N/A time=00:11:47.58 bitrate=N/A speed=17.1x    frame=17135 fps=410 q=-0.0 size=N/A time=00:11:54.67 bitrate=N/A speed=17.1x    frame=17347 fps=410 q=-0.0 size=N/A time=00:12:03.51 bitrate=N/A speed=17.1x    frame=17614 fps=411 q=-0.0 size=N/A time=00:12:14.65 bitrate=N/A speed=17.1x    frame=17803 fps=411 q=-0.0 size=N/A time=00:12:22.53 bitrate=N/A speed=17.1x    frame=18031 fps=411 q=-0.0 size=N/A time=00:12:32.04 bitrate=N/A speed=17.1x    frame=18303 fps=412 q=-0.0 size=N/A time=00:12:43.38 bitrate=N/A speed=17.2x    frame=18590 fps=414 q=-0.0 size=N/A time=00:12:55.35 bitrate=N/A speed=17.3x    frame=18866 fps=415 q=-0.0 size=N/A time=00:13:06.86 bitrate=N/A speed=17.3x    frame=19140 fps=417 q=-0.0 size=N/A time=00:13:18.29 bitrate=N/A speed=17.4x    frame=19386 fps=417 q=-0.0 size=N/A time=00:13:28.55 bitrate=N/A speed=17.4x    frame=19653 fps=418 q=-0.0 size=N/A time=00:13:39.69 bitrate=N/A speed=17.4x    frame=19898 fps=419 q=-0.0 size=N/A time=00:13:49.91 bitrate=N/A speed=17.5x    frame=20107 fps=419 q=-0.0 size=N/A time=00:13:58.62 bitrate=N/A speed=17.5x    frame=20344 fps=419 q=-0.0 size=N/A time=00:14:08.51 bitrate=N/A speed=17.5x    frame=20603 fps=420 q=-0.0 size=N/A time=00:14:19.31 bitrate=N/A speed=17.5x    frame=20846 fps=421 q=-0.0 size=N/A time=00:14:29.45 bitrate=N/A speed=17.5x    frame=21087 fps=421 q=-0.0 size=N/A time=00:14:39.50 bitrate=N/A speed=17.6x    frame=21290 fps=421 q=-0.0 size=N/A time=00:14:47.97 bitrate=N/A speed=17.6x    frame=21501 fps=421 q=-0.0 size=N/A time=00:14:56.77 bitrate=N/A speed=17.6x    frame=21663 fps=420 q=-0.0 size=N/A time=00:15:03.52 bitrate=N/A speed=17.5x    frame=21855 fps=419 q=-0.0 size=N/A time=00:15:11.53 bitrate=N/A speed=17.5x    frame=22074 fps=419 q=-0.0 size=N/A time=00:15:20.66 bitrate=N/A speed=17.5x    frame=22305 fps=420 q=-0.0 size=N/A time=00:15:30.30 bitrate=N/A speed=17.5x    frame=22548 fps=420 q=-0.0 size=N/A time=00:15:40.43 bitrate=N/A speed=17.5x    frame=22749 fps=420 q=-0.0 size=N/A time=00:15:48.82 bitrate=N/A speed=17.5x    frame=22977 fps=420 q=-0.0 size=N/A time=00:15:58.33 bitrate=N/A speed=17.5x    frame=23176 fps=420 q=-0.0 size=N/A time=00:16:06.63 bitrate=N/A speed=17.5x    frame=23353 fps=419 q=-0.0 size=N/A time=00:16:14.01 bitrate=N/A speed=17.5x    frame=23558 fps=419 q=-0.0 size=N/A time=00:16:22.56 bitrate=N/A speed=17.5x    frame=23835 fps=420 q=-0.0 size=N/A time=00:16:34.11 bitrate=N/A speed=17.5x    frame=24080 fps=420 q=-0.0 size=N/A time=00:16:44.33 bitrate=N/A speed=17.5x    frame=24317 fps=421 q=-0.0 size=N/A time=00:16:54.22 bitrate=N/A speed=17.5x    frame=24565 fps=421 q=-0.0 size=N/A time=00:17:04.56 bitrate=N/A speed=17.6x    frame=24801 fps=422 q=-0.0 size=N/A time=00:17:14.40 bitrate=N/A speed=17.6x    frame=25035 fps=422 q=-0.0 size=N/A time=00:17:24.16 bitrate=N/A speed=17.6x    frame=25264 fps=422 q=-0.0 size=N/A time=00:17:33.71 bitrate=N/A speed=17.6x    frame=25491 fps=422 q=-0.0 size=N/A time=00:17:43.18 bitrate=N/A speed=17.6x    frame=25737 fps=423 q=-0.0 size=N/A time=00:17:53.44 bitrate=N/A speed=17.6x    frame=25987 fps=423 q=-0.0 size=N/A time=00:18:03.87 bitrate=N/A speed=17.7x    frame=26182 fps=423 q=-0.0 size=N/A time=00:18:12.00 bitrate=N/A speed=17.6x    frame=26426 fps=423 q=-0.0 size=N/A time=00:18:22.18 bitrate=N/A speed=17.7x    frame=26637 fps=423 q=-0.0 size=N/A time=00:18:30.98 bitrate=N/A speed=17.6x    frame=26885 fps=424 q=-0.0 size=N/A time=00:18:41.32 bitrate=N/A speed=17.7x    frame=27142 fps=424 q=-0.0 size=N/A time=00:18:52.04 bitrate=N/A speed=17.7x    frame=27385 fps=425 q=-0.0 size=N/A time=00:19:02.18 bitrate=N/A speed=17.7x    frame=27611 fps=425 q=-0.0 size=N/A time=00:19:11.60 bitrate=N/A speed=17.7x    frame=27855 fps=425 q=-0.0 size=N/A time=00:19:21.78 bitrate=N/A speed=17.7x    frame=28119 fps=426 q=-0.0 size=N/A time=00:19:32.79 bitrate=N/A speed=17.8x    frame=28373 fps=426 q=-0.0 size=N/A time=00:19:43.39 bitrate=N/A speed=17.8x    frame=28593 fps=426 q=-0.0 size=N/A time=00:19:52.56 bitrate=N/A speed=17.8x    frame=28845 fps=427 q=-0.0 size=N/A time=00:20:03.07 bitrate=N/A speed=17.8x    frame=29062 fps=427 q=-0.0 size=N/A time=00:20:12.12 bitrate=N/A speed=17.8x    frame=29326 fps=427 q=-0.0 size=N/A time=00:20:23.13 bitrate=N/A speed=17.8x    frame=29614 fps=428 q=-0.0 size=N/A time=00:20:35.15 bitrate=N/A speed=17.9x    frame=29849 fps=428 q=-0.0 size=N/A time=00:20:44.95 bitrate=N/A speed=17.9x    frame=30113 fps=429 q=-0.0 size=N/A time=00:20:55.96 bitrate=N/A speed=17.9x    frame=30363 fps=429 q=-0.0 size=N/A time=00:21:06.39 bitrate=N/A speed=17.9x    frame=30647 fps=430 q=-0.0 size=N/A time=00:21:18.23 bitrate=N/A speed=17.9x    frame=30892 fps=431 q=-0.0 size=N/A time=00:21:28.45 bitrate=N/A speed=  18x    frame=31147 fps=431 q=-0.0 size=N/A time=00:21:39.08 bitrate=N/A speed=  18x    frame=31389 fps=431 q=-0.0 size=N/A time=00:21:49.18 bitrate=N/A speed=  18x    frame=31631 fps=432 q=-0.0 size=N/A time=00:21:59.27 bitrate=N/A speed=  18x    frame=31876 fps=432 q=-0.0 size=N/A time=00:22:09.49 bitrate=N/A speed=  18x    frame=32101 fps=432 q=-0.0 size=N/A time=00:22:18.87 bitrate=N/A speed=  18x    frame=32361 fps=432 q=-0.0 size=N/A time=00:22:29.72 bitrate=N/A speed=  18x    frame=32618 fps=433 q=-0.0 size=N/A time=00:22:40.44 bitrate=N/A speed=18.1x    frame=32865 fps=433 q=-0.0 size=N/A time=00:22:50.74 bitrate=N/A speed=18.1x    frame=33089 fps=433 q=-0.0 size=N/A time=00:23:00.08 bitrate=N/A speed=18.1x    frame=33317 fps=433 q=-0.0 size=N/A time=00:23:09.59 bitrate=N/A speed=18.1x    [Parsed_psnr_10 @ 0000018044aa3780] PSNR y:48.127458 u:51.284248 v:51.308726 average:48.950552 min:35.449714 max:inf
[out#0/null @ 0000018038f77e80] video:14395KiB audio:262008KiB subtitle:0KiB other streams:0KiB global headers:0KiB muxing overhead: unknown
frame=33501 fps=433 q=-0.0 Lsize=N/A time=00:23:17.27 bitrate=N/A speed=18.1x    
